      <svg
        width="27"
        height="27"
        viewBox="0 0 27 27"
        fill="none"
        xmlns="http://www.w3.org/2000/svg"
      >
        <path
          d="M22.7792 15.2394C22.5027 15.1532 22.2033 15.1799 21.9463 15.3135C21.6894 15.4471 21.4956 15.6769 21.4074 15.9528C20.8889 17.5381 19.8781 18.9166 18.522 19.8878C17.1659 20.8589 15.5354 21.3721 13.8676 21.3525C11.8046 21.3759 9.81661 20.5804 8.33941 19.1402C6.86222 17.7 6.01642 15.7328 5.9875 13.67C6.01642 11.6072 6.86222 9.63996 8.33941 8.1998C9.81661 6.75964 11.8046 5.96405 13.8676 5.9875C15.7306 5.983 17.5364 6.63152 18.9709 7.82032L16.5893 7.42522C16.4466 7.40174 16.3006 7.4067 16.1598 7.43983C16.019 7.47295 15.8862 7.53358 15.7689 7.61824C15.6516 7.70289 15.5522 7.8099 15.4764 7.93311C15.4006 8.05631 15.3499 8.19329 15.3272 8.33615C15.3037 8.47888 15.3087 8.62485 15.3418 8.76566C15.375 8.90647 15.4356 9.03934 15.5202 9.15663C15.6049 9.27393 15.7119 9.37333 15.8351 9.44912C15.9583 9.52491 16.0953 9.5756 16.2381 9.59827L20.8915 10.3665H21.0781C21.2054 10.3664 21.3316 10.3441 21.4513 10.3007C21.4915 10.2854 21.5286 10.2631 21.561 10.2348C21.6397 10.2056 21.7137 10.1649 21.7805 10.1141L21.8793 9.99337C21.8793 9.9385 21.9781 9.8946 22.022 9.82875C22.0659 9.7629 22.022 9.719 22.0768 9.6751C22.1072 9.61118 22.1329 9.54516 22.1537 9.47755L22.9768 5.08755C23.0042 4.94342 23.0029 4.79532 22.9731 4.65168C22.9432 4.50805 22.8853 4.3717 22.8028 4.25042C22.7202 4.12915 22.6146 4.02532 22.4919 3.94487C22.3693 3.86441 22.232 3.80891 22.0878 3.78152C21.9437 3.75414 21.7956 3.75541 21.652 3.78527C21.5083 3.81512 21.372 3.87298 21.2507 3.95553C21.0058 4.12224 20.8371 4.37942 20.7818 4.6705L20.4855 6.26187C18.6482 4.66967 16.2987 3.79297 13.8676 3.7925C11.2225 3.76909 8.67619 4.79594 6.78736 6.64773C4.89853 8.49953 3.82146 11.025 3.7925 13.67C3.82146 16.315 4.89853 18.8405 6.78736 20.6923C8.67619 22.5441 11.2225 23.5709 13.8676 23.5475C16.0111 23.5804 18.1086 22.9243 19.8513 21.6756C21.5939 20.4269 22.8896 18.6517 23.5475 16.6113C23.5891 16.4708 23.6022 16.3234 23.5859 16.1777C23.5697 16.0321 23.5244 15.8912 23.4528 15.7633C23.3812 15.6354 23.2847 15.5232 23.169 15.4332C23.0533 15.3432 22.9208 15.2774 22.7792 15.2394Z"
          fill="white"
        />
      </svg>
